<svg width="700" height="420" viewBox="0 0 700 420" fill="none" xmlns="http://www.w3.org/2000/svg">
  <rect width="700" height="420" rx="24" fill="#0B1220"/>
  <rect x="16" y="16" width="668" height="388" rx="18" fill="#101A2C" stroke="#23344D" stroke-width="2"/>
  <rect x="30" y="30" width="120" height="14" rx="7" fill="#FF5F56"/>
  <rect x="160" y="30" width="120" height="14" rx="7" fill="#FFBD2E"/>
  <rect x="290" y="30" width="120" height="14" rx="7" fill="#27C93F"/>
  <rect x="60" y="80" width="280" height="18" rx="9" fill="#00C9FF" fill-opacity="0.3"/>
  <rect x="60" y="118" width="520" height="18" rx="9" fill="#92FE9D" fill-opacity="0.3"/>
  <rect x="60" y="156" width="450" height="18" rx="9" fill="#FFFFFF" fill-opacity="0.16"/>
  <rect x="60" y="194" width="300" height="18" rx="9" fill="#00C9FF" fill-opacity="0.22"/>
  <rect x="60" y="232" width="500" height="18" rx="9" fill="#92FE9D" fill-opacity="0.17"/>
  <rect x="60" y="270" width="360" height="18" rx="9" fill="#FFFFFF" fill-opacity="0.14"/>
  <rect x="60" y="320" width="170" height="46" rx="12" fill="#00C9FF" fill-opacity="0.2"/>
  <path d="M90 342L122 374" stroke="#00C9FF" stroke-width="10" stroke-linecap="round"/>
  <path d="M122 342L90 374" stroke="#92FE9D" stroke-width="10" stroke-linecap="round"/>
</svg>
